<svg width="381" height="381" viewBox="0 0 381 381" fill="none"
    xmlns="http://www.w3.org/2000/svg">
    <g clip-path="url(#clip0_4_2)">
        <mask id="mask0_4_2" style="mask-type:alpha" maskUnits="userSpaceOnUse" x="0" y="0" width="381" height="381">
            <circle cx="190.5" cy="190.5" r="190.5" fill="#D9D9D9"/>
        </mask>
        <g mask="url(#mask0_4_2)">
            <path d="M-140 301.7H522.903V353.038C522.903 375.129 504.995 393.038 482.903 393.038H-100C-122.091 393.038 -140 375.129 -140 353.038V301.7Z" fill="#2D3192"/>
            <rect x="-140" y="196.239" width="662.903" height="91.3375" fill="#00AA5B"/>
            <rect x="-140" y="90.7766" width="662.903" height="91.3375" fill="#F5791F"/>
            <path d="M-140 29.0812C-140 6.98982 -122.091 -10.9188 -100 -10.9188H481.02C503.111 -10.9188 521.02 6.98982 521.02 29.0812V76.6523H-140V29.0812Z" fill="#ED1B24"/>
            <path d="M298.808 82.8572L298.808 82.8573C301.19 85.4247 303.116 88.0789 304.482 91.4183C305.845 94.7485 306.754 99.0145 306.764 104.91C305.108 146.557 292.226 217.127 236.963 262.701C185.738 302.622 129.003 305.722 102.494 306.723C96.7489 306.245 92.7818 305.196 89.7751 303.798C86.8204 302.424 84.5406 300.597 82.2975 298.191C77.4809 292.073 75.992 289.215 75.3646 286.848C75.0424 285.633 74.8977 284.353 74.8105 282.497C74.7827 281.906 74.7585 281.145 74.7311 280.279C74.6878 278.914 74.6363 277.289 74.5491 275.661C78.8281 230.568 83.4696 182.671 133.212 128.038C155.701 105.595 188.189 92.0597 217.018 84.1972C245.883 76.3249 270.268 74.3507 275.793 74.4999C281.696 74.6594 286.025 75.2839 289.557 76.5547C292.986 77.7886 295.893 79.7157 298.808 82.8572Z" stroke="white" stroke-width="10"/>
            <path d="M82.1152 301.056C223.037 261.237 255.224 219.428 299.688 88.3594" stroke="white" stroke-width="5"/>
            <path d="M131.836 304.148L105.606 279.924L79.2548 251.814L86.1392 226.962C108.061 251.067 111.151 262.371 157.379 295.698L131.836 304.148Z" fill="#FFFEFE"/>
            <path d="M131.836 304.148L105.606 279.924L79.2548 251.814L86.1392 226.962C108.061 251.067 111.151 262.371 157.379 295.698L131.836 304.148Z" fill="#FFFEFE"/>
            <path d="M250.141 76.7265L276.348 101.085L302.666 129.34L295.687 154.223C273.796 129.996 270.736 118.658 224.516 85.1117L250.141 76.7265Z" fill="#FFFEFE"/>
            <path d="M250.141 76.7265L276.348 101.085L302.666 129.34L295.687 154.223C273.796 129.996 270.736 118.658 224.516 85.1117L250.141 76.7265Z" fill="#FFFEFE"/>
            <path d="M112.209 199.851C137.825 158.488 157.342 138.453 200.427 111.851" stroke="white" stroke-width="5" stroke-linecap="round"/>
            <path d="M187.201 114.573L194.501 121.21" stroke="white" stroke-width="10" stroke-linecap="round"/>
            <path d="M170.61 125.191L177.91 132.491" stroke="white" stroke-width="10" stroke-linecap="round"/>
            <path d="M154.682 137.801L161.982 145.101" stroke="white" stroke-width="10" stroke-linecap="round"/>
            <path d="M137.428 153.064L145.391 159.701" stroke="white" stroke-width="10" stroke-linecap="round"/>
            <path d="M124.819 170.319L132.119 176.292" stroke="white" stroke-width="10" stroke-linecap="round"/>
            <path d="M113.537 186.246L121.5 194.21" stroke="white" stroke-width="10" stroke-linecap="round"/>
        </g>
    </g>
    <defs>
        <clipPath id="clip0_4_2">
            <rect width="381" height="381" fill="white"/>
        </clipPath>
    </defs>
</svg>
