<svg width="1024" height="1024" viewBox="0 0 1024 1024" fill="none" xmlns="http://www.w3.org/2000/svg">
    <style>
        path {
            color: #ffffff;
        }
        .spacer {
            fill: #ffffff;
        }
    </style>
    <mask id="mask0_34_2" style="mask-type:alpha" maskUnits="userSpaceOnUse" x="0" y="0" width="1024" height="1024">
<circle cx="512" cy="512" r="512" fill="#D9D9D9"/>
</mask>
<g mask="url(#mask0_34_2)">

<path d="M-376.273 810.869H1405.39V948.847C1405.39 1008.22 1357.26 1056.35 1297.88 1056.35H-268.766C-328.14 1056.35 -376.273 1008.22 -376.273 948.847V810.869Z" fill="#2D3192"/>
<rect x="-376.273" y="527.423" width="1781.66" height="245.485" fill="#00AA5B"/>
<rect x="-376.273" y="243.977" width="1781.66" height="245.485" fill="#F5791F"/>
<path d="M-376.273 78.1606C-376.273 18.7864 -328.141 -29.3461 -268.766 -29.3461H1292.82C1352.19 -29.3461 1400.33 18.7863 1400.33 78.1605V206.015H-376.273V78.1606Z" fill="#ED1B24"/>
<rect class="spacer" x="-252" y="206" width="1544" height="38" fill="currentColor"/>
<rect class="spacer" x="-260" y="489" width="1544" height="38" fill="currentColor"/>
<rect class="spacer" x="-253" y="773" width="1544" height="38" fill="currentColor"/>
<path d="M803.094 222.692L803.094 222.693C809.496 229.593 814.673 236.727 818.346 245.702C822.008 254.652 824.452 266.118 824.479 281.962C820.029 393.896 785.405 583.564 636.878 706.053C499.2 813.348 346.715 821.677 275.469 824.367C260.028 823.085 249.366 820.263 241.285 816.506C233.344 812.813 227.216 807.904 221.188 801.436C208.243 784.995 204.241 777.313 202.555 770.952C201.689 767.685 201.3 764.245 201.065 759.258C200.991 757.668 200.926 755.623 200.852 753.297C200.736 749.627 200.597 745.258 200.363 740.882C211.863 619.689 224.339 490.957 358.03 344.123C418.473 283.803 505.789 247.425 583.271 226.294C660.851 205.136 726.389 199.83 741.238 200.231C757.104 200.659 768.74 202.338 778.232 205.753C787.447 209.07 795.261 214.249 803.094 222.692Z" stroke="currentColor" stroke-width="26.8766"/>
<path d="M220.698 809.137C599.45 702.119 685.956 589.749 805.46 237.48" stroke="currentColor" stroke-width="13.4383"/>
<path d="M354.331 817.447L283.835 752.343L213.01 676.791L231.513 609.998C290.432 674.785 298.736 705.166 422.983 794.738L354.331 817.447Z" fill="currentColor"/>
<path d="M354.331 817.447L283.835 752.343L213.01 676.791L231.513 609.998C290.432 674.785 298.736 705.166 422.983 794.738L354.331 817.447Z" fill="currentColor"/>
<path d="M672.295 206.215L742.731 271.683L813.463 347.623L794.707 414.498C735.871 349.385 727.647 318.913 603.424 228.752L672.295 206.215Z" fill="currentColor"/>
<path d="M672.295 206.215L742.731 271.683L813.463 347.623L794.707 414.498C735.871 349.385 727.647 318.913 603.424 228.752L672.295 206.215Z" fill="currentColor"/>
<path d="M301.581 537.132C370.426 425.963 422.883 372.116 538.681 300.618" stroke="currentColor" stroke-width="13.4383" stroke-linecap="round"/>
<path d="M503.133 307.934L522.753 325.77" stroke="currentColor" stroke-width="26.8766" stroke-linecap="round"/>
<path d="M458.542 336.472L478.162 356.092" stroke="currentColor" stroke-width="26.8766" stroke-linecap="round"/>
<path d="M415.734 370.361L435.354 389.981" stroke="currentColor" stroke-width="26.8766" stroke-linecap="round"/>
<path d="M369.36 411.385L390.763 429.222" stroke="currentColor" stroke-width="26.8766" stroke-linecap="round"/>
<path d="M335.471 457.76L355.091 473.813" stroke="currentColor" stroke-width="26.8766" stroke-linecap="round"/>
<path d="M305.149 500.567L326.552 521.971" stroke="currentColor" stroke-width="26.8766" stroke-linecap="round"/>
</g>
</svg>
