<?xml version="1.0" standalone="no"?>
<!DOCTYPE svg PUBLIC "-//W3C//DTD SVG 20010904//EN"
 "http://www.w3.org/TR/2001/REC-SVG-20010904/DTD/svg10.dtd">
<svg version="1.0" xmlns="http://www.w3.org/2000/svg"
 width="700.000000pt" height="700.000000pt" viewBox="0 0 700.000000 700.000000"
 preserveAspectRatio="xMidYMid meet">
<metadata>
Created by potrace 1.14, written by Peter Selinger 2001-2017
</metadata>
<g transform="translate(0.000000,700.000000) scale(0.100000,-0.100000)"
fill="#000000" stroke="none">
<path d="M3278 6996 c-1 -2 -42 -6 -89 -10 -47 -4 -95 -8 -105 -10 -10 -2 -41
-7 -69 -10 -27 -4 -76 -11 -107 -17 -32 -5 -70 -12 -85 -15 -234 -41 -591
-160 -838 -280 -180 -87 -448 -247 -555 -331 -8 -6 -51 -40 -95 -74 -140 -109
-316 -274 -447 -420 -74 -83 -188 -224 -188 -233 0 -3 739 -6 1642 -6 904 0
1677 0 1718 -1 l75 0 -45 -13 c-25 -8 -90 -26 -145 -41 -149 -40 -303 -91
-461 -150 l-141 -54 -1389 0 c-764 0 -1401 -1 -1415 -1 -22 0 -34 -16 -96
-127 -60 -107 -153 -296 -153 -309 0 -2 -11 -27 -24 -56 -51 -113 -131 -355
-162 -488 -60 -262 -92 -477 -98 -665 l-1 -30 825 0 c716 -1 825 -3 823 -15
-2 -19 -89 -229 -98 -238 -4 -4 -354 -7 -778 -7 l-772 -1 1 -59 c1 -64 12
-206 19 -246 2 -13 6 -46 9 -74 9 -78 23 -156 51 -285 30 -142 109 -391 174
-555 35 -88 193 -408 217 -439 14 -19 30 -20 415 -20 l401 -1 12 -35 c13 -38
74 -138 112 -183 13 -16 24 -32 24 -35 0 -4 -173 -7 -385 -6 -267 0 -385 -3
-385 -10 0 -14 139 -187 228 -285 466 -515 1059 -876 1722 -1047 154 -40 298
-69 395 -79 22 -3 51 -7 63 -9 132 -27 680 -28 844 -1 13 2 46 7 73 10 72 10
86 12 120 19 17 3 44 8 60 11 342 65 741 212 1039 384 49 28 93 51 97 51 5 0
9 5 9 10 0 6 5 10 10 10 15 0 220 141 330 227 151 117 324 281 450 422 36 41
70 79 75 85 6 6 36 45 68 86 31 41 61 80 65 85 4 6 11 15 14 21 5 7 -457 10
-1565 9 -865 0 -1580 1 -1589 3 -13 3 156 67 277 106 6 2 21 8 35 13 14 6 48
20 75 31 28 11 91 40 140 63 l90 43 1357 1 c747 1 1359 3 1362 6 18 18 196
368 196 385 0 2 11 27 24 56 55 123 152 428 182 573 16 78 54 300 59 345 17
158 26 287 19 304 -3 8 -234 11 -814 11 -501 -1 -810 3 -810 8 0 10 60 169 84
222 l13 30 757 -1 c416 0 760 2 765 5 10 7 -10 289 -24 341 -2 8 -7 35 -10 60
-3 25 -15 88 -26 140 -82 389 -202 703 -402 1058 -39 68 -43 72 -76 72 -20 1
-199 1 -398 1 l-362 0 -32 65 c-18 35 -59 93 -91 129 l-60 65 154 1 c84 0 259
0 390 -1 130 0 239 3 241 7 6 9 -86 125 -190 241 -97 108 -227 235 -323 316
-47 39 -94 79 -105 89 -43 39 -270 195 -377 260 -210 126 -468 244 -706 322
-162 54 -405 113 -532 130 -19 3 -46 7 -60 10 -13 2 -52 7 -86 11 -33 3 -74 8
-90 10 -32 5 -540 14 -546 10z m1941 -1470 c84 -19 128 -42 184 -96 51 -50 57
-60 48 -78 -10 -20 -20 -20 -292 -21 l-281 0 -51 47 c-28 26 -71 66 -95 90
l-45 42 34 1 c19 0 45 3 59 5 119 20 371 25 439 10z m-1008 -153 c21 -16 39
-31 39 -35 0 -4 -78 -7 -172 -7 l-173 1 65 20 c90 27 162 46 183 47 11 1 36
-11 58 -26z m-2201 -1726 c1 -4 -4 -24 -9 -44 -12 -42 -4 -62 46 -114 34 -36
34 -37 20 -66 l-16 -29 -139 0 c-77 1 -143 4 -146 7 -8 8 13 67 62 169 l41 85
70 0 c39 0 71 -4 71 -8z m200 -2 c0 -26 -24 -34 -48 -15 l-22 19 22 3 c40 6
48 5 48 -7z m2528 6 c3 -1 -42 -84 -66 -123 -9 -14 -31 -50 -48 -80 l-31 -53
-1137 0 c-1134 0 -1137 0 -1135 20 3 42 -2 55 -31 88 -16 19 -30 38 -30 43 0
4 16 30 35 58 l35 51 1202 -1 c662 -1 1204 -2 1206 -3z m526 -2 c2 -2 -20 -60
-49 -129 l-53 -125 -231 -1 c-127 0 -230 2 -229 5 2 4 35 61 73 128 48 84 76
123 90 125 31 5 394 2 399 -3z m-3160 -1940 c9 -8 -71 -36 -297 -105 -185 -56
-188 -56 -209 -38 -20 18 -108 137 -108 146 0 7 608 4 614 -3z m1165 -17 c-64
-24 -364 -112 -382 -112 -10 0 -107 68 -161 112 l-28 24 317 0 318 0 -64 -24z
m-1010 -131 c39 -35 71 -67 71 -70 0 -4 -10 -7 -22 -8 -13 0 -66 -4 -118 -9
-134 -12 -400 -11 -430 2 -23 10 -18 14 65 38 50 15 149 47 220 71 72 23 133
42 136 41 4 0 39 -30 78 -65z"/>
</g>
</svg>
